<svg width="26" height="26" viewBox="0 0 26 26" fill="none" xmlns="http://www.w3.org/2000/svg">
<path d="M7.38994 8.66675C7.2059 8.14604 6.63457 7.87311 6.11386 8.05716C5.59314 8.24121 5.32022 8.81253 5.50426 9.33325L7.38994 8.66675ZM11.1623 9.33325C11.3464 8.81253 11.0735 8.24121 10.5527 8.05716C10.032 7.87311 9.4607 8.14604 9.27666 8.66675L11.1623 9.33325ZM17.7152 17.3332C17.8993 16.8125 17.6264 16.2412 17.1056 16.0572C16.5849 15.8731 16.0136 16.146 15.8296 16.6668L17.7152 17.3332ZM10.1704 16.6668C9.9864 16.146 9.41508 15.8731 8.89436 16.0572C8.37365 16.2412 8.10072 16.8125 8.28477 17.3332L10.1704 16.6668ZM16.7233 8.66675C16.5392 8.14604 15.9679 7.87311 15.4472 8.05716C14.9265 8.24121 14.6536 8.81253 14.8376 9.33325L16.7233 8.66675ZM20.4957 9.33325C20.6797 8.81253 20.4068 8.24121 19.8861 8.05716C19.3654 7.87311 18.794 8.14604 18.61 8.66675L20.4957 9.33325ZM13 26C20.1797 26 26 20.1797 26 13H24C24 19.0751 19.0751 24 13 24V26ZM26 13C26 5.8203 20.1797 0 13 0V2C19.0751 2 24 6.92487 24 13H26ZM13 0C5.8203 0 0 5.8203 0 13H2C2 6.92487 6.92487 2 13 2V0ZM0 13C0 20.1797 5.8203 26 13 26V24C6.92487 24 2 19.0751 2 13H0ZM8.3333 9.33333C7.89946 9.33333 7.5277 9.0565 7.38994 8.66675L5.50426 9.33325C5.91562 10.4971 7.02552 11.3333 8.3333 11.3333V9.33333ZM9.27666 8.66675C9.1389 9.0565 8.76714 9.33333 8.3333 9.33333V11.3333C9.64108 11.3333 10.751 10.4971 11.1623 9.33325L9.27666 8.66675ZM15.8296 16.6668C15.4172 17.8333 14.3047 18.6667 13 18.6667V20.6667C15.1786 20.6667 17.0293 19.2739 17.7152 17.3332L15.8296 16.6668ZM13 18.6667C11.6953 18.6667 10.5828 17.8333 10.1704 16.6668L8.28477 17.3332C8.97069 19.2739 10.8214 20.6667 13 20.6667V18.6667ZM17.6666 9.33333C17.2328 9.33333 16.861 9.0565 16.7233 8.66675L14.8376 9.33325C15.249 10.4971 16.3589 11.3333 17.6666 11.3333V9.33333ZM18.61 8.66675C18.4722 9.0565 18.1005 9.33333 17.6666 9.33333V11.3333C18.9744 11.3333 20.0843 10.4971 20.4957 9.33325L18.61 8.66675Z" fill="#F5F5F5"/>
</svg>
