<svg width="22" height="28" viewBox="0 0 22 28" fill="none" xmlns="http://www.w3.org/2000/svg">
<path d="M18.1691 14.7591C18.1569 12.5733 19.0999 10.9259 21.0044 9.71121C19.9392 8.10871 18.3278 7.22733 16.2036 7.05746C14.1924 6.8908 11.9919 8.28819 11.1862 8.28819C10.3347 8.28819 8.3875 7.11515 6.85541 7.11515C3.69356 7.16643 0.333328 9.76249 0.333328 15.0443C0.333328 16.6052 0.604954 18.2173 1.14821 19.8775C1.87458 22.0633 4.49318 27.4189 7.2247 27.3323C8.65302 27.2971 9.66323 26.2683 11.5219 26.2683C13.3256 26.2683 14.2595 27.3323 15.8526 27.3323C18.6086 27.2907 20.9769 22.4223 21.6667 20.23C17.9707 18.4 18.1691 14.8713 18.1691 14.7591ZM14.9615 4.98383C16.5088 3.05441 16.3684 1.29807 16.3226 0.666687C14.9554 0.750017 13.3744 1.64421 12.4741 2.74353C11.4822 3.92297 10.8993 5.38125 11.0244 7.02541C12.5016 7.144 13.8505 6.34595 14.9615 4.98383Z" fill="#FF541E"/>
</svg>
