<svg width="164" height="52" viewBox="0 0 164 52" fill="none" xmlns="http://www.w3.org/2000/svg">
<path d="M0 51.2246H9.67464V29.4642H31.8663V21.6854H9.67464V7.77874H34.2133V0H0V51.2246Z" fill="#FF541E"/>
<path d="M48.6374 52C54.922 52 58.6771 49.1736 60.3982 45.9471H60.7111V51.2246H69.786V25.5123C69.786 15.3574 61.1544 12.3059 53.5138 12.3059C45.0909 12.3059 38.6237 15.9076 36.5375 22.911L45.3516 24.1116C46.2904 21.4853 48.9503 19.2342 53.566 19.2342C57.9469 19.2342 60.346 21.3853 60.346 25.1621V25.3122C60.346 27.9134 57.5036 28.0385 50.4367 28.7638C42.6657 29.5642 35.2337 31.7903 35.2337 40.4444C35.2337 47.9981 40.9967 52 48.6374 52ZM51.0886 45.3468C47.151 45.3468 44.3346 43.621 44.3346 40.2944C44.3346 36.8177 47.49 35.367 51.7145 34.7917C54.1918 34.4666 59.1465 33.8663 60.3721 32.9158V37.443C60.3721 41.7201 56.7734 45.3468 51.0886 45.3468Z" fill="#FF541E"/>
<path d="M105.795 22.961C104.492 16.4579 99.0675 12.3059 89.6797 12.3059C80.0312 12.3059 73.4597 16.8581 73.4858 23.9615C73.4597 29.5642 77.0584 33.266 84.7511 34.7917L91.5834 36.1674C95.2603 36.9428 96.9814 38.3684 96.9814 40.5445C96.9814 43.1708 94.0086 45.1467 89.5233 45.1467C85.1945 45.1467 82.3781 43.3458 81.5697 39.8942L72.3645 40.7446C73.5379 47.798 79.7182 51.975 89.5493 51.975C99.563 51.975 106.63 46.9976 106.656 39.7191C106.63 34.2415 102.953 30.8899 95.3906 29.3141L88.5584 27.9134C84.4904 27.038 82.8736 25.6874 82.8997 23.4613C82.8736 20.86 85.8725 19.0592 89.8101 19.0592C94.165 19.0592 96.4598 21.3353 97.19 23.8615L105.795 22.961Z" fill="#FF541E"/>
<path d="M129.301 12.8062H121.4V3.60173H111.96V12.8062H106.275V19.8095H111.96V41.1698C111.907 48.3983 117.384 51.95 124.477 51.7499C127.163 51.6748 129.014 51.1746 130.031 50.8494L128.44 43.771C127.919 43.8961 126.85 44.1212 125.676 44.1212C123.303 44.1212 121.4 43.3208 121.4 39.6691V19.8095H129.301V12.8062Z" fill="#FF541E"/>
<path d="M163.139 22.961C161.836 16.4579 156.412 12.3059 147.024 12.3059C137.375 12.3059 130.804 16.8581 130.83 23.9615C130.804 29.5642 134.402 33.266 142.095 34.7917L148.927 36.1674C152.604 36.9428 154.325 38.3684 154.325 40.5445C154.325 43.1708 151.353 45.1467 146.867 45.1467C142.538 45.1467 139.722 43.3458 138.914 39.8942L129.708 40.7446C130.882 47.798 137.062 51.975 146.893 51.975C156.907 51.975 163.974 46.9976 164 39.7191C163.974 34.2415 160.297 30.8899 152.735 29.3141L145.902 27.9134C141.834 27.038 140.218 25.6874 140.244 23.4613C140.218 20.86 143.216 19.0592 147.154 19.0592C151.509 19.0592 153.804 21.3353 154.534 23.8615L163.139 22.961Z" fill="#FF541E"/>
</svg>
