<svg width="24" height="24" viewBox="0 0 24 24" fill="none" xmlns="http://www.w3.org/2000/svg">
<path d="M2.83857 17.7311C2.78212 18.2805 3.18174 18.7717 3.73113 18.8281C4.28052 18.8845 4.77165 18.4849 4.8281 17.9355L2.83857 17.7311ZM19.1722 17.9309C19.2304 18.4802 19.7228 18.8782 20.272 18.82C20.8212 18.7618 21.2193 18.2694 21.1611 17.7202L19.1722 17.9309ZM12 23.5C18.3513 23.5 23.5 18.3513 23.5 12H21.5C21.5 17.2467 17.2467 21.5 12 21.5V23.5ZM23.5 12C23.5 5.64872 18.3513 0.5 12 0.5V2.5C17.2467 2.5 21.5 6.75329 21.5 12H23.5ZM12 0.5C5.64872 0.5 0.5 5.64872 0.5 12H2.5C2.5 6.75329 6.75329 2.5 12 2.5V0.5ZM0.5 12C0.5 18.3513 5.64872 23.5 12 23.5V21.5C6.75329 21.5 2.5 17.2467 2.5 12H0.5ZM12 11.8333C14.1631 11.8333 15.9167 10.0798 15.9167 7.91667H13.9167C13.9167 8.9752 13.0585 9.83333 12 9.83333V11.8333ZM15.9167 7.91667C15.9167 5.75357 14.1631 4 12 4V6C13.0585 6 13.9167 6.85813 13.9167 7.91667H15.9167ZM12 4C9.8369 4 8.08333 5.75357 8.08333 7.91667H10.0833C10.0833 6.85813 10.9415 6 12 6V4ZM8.08333 7.91667C8.08333 10.0798 9.8369 11.8333 12 11.8333V9.83333C10.9415 9.83333 10.0833 8.9752 10.0833 7.91667H8.08333ZM4.8281 17.9355C4.88555 17.3763 5.29673 16.739 6.17926 16.2066C7.0487 15.6821 8.27247 15.3333 9.66326 15.3333V13.3333C7.95832 13.3333 6.36753 13.7573 5.14614 14.4941C3.93785 15.2231 2.98193 16.3358 2.83857 17.7311L4.8281 17.9355ZM9.66326 15.3333H14.3375V13.3333H9.66326V15.3333ZM14.3375 15.3333C15.7264 15.3333 16.9488 15.6812 17.8181 16.2046C18.7005 16.7359 19.113 17.3723 19.1722 17.9309L21.1611 17.7202C21.0136 16.328 20.0573 15.2183 18.8498 14.4912C17.629 13.7562 16.0402 13.3333 14.3375 13.3333V15.3333Z" fill="#747474"/>
</svg>
