<svg width="26" height="26" viewBox="0 0 26 26" fill="none" xmlns="http://www.w3.org/2000/svg">
<path d="M21 9.00553V6.33333C21 5 22.3333 3.66667 23.6667 3.66667M13 9.00553V3.80609C13 2.33333 14.3333 1 15.6667 1M5 9.00553V7.66667C5 6.33333 6.33333 5 7.80607 5M18.3333 25C18.3333 25 18.3333 23.757 18.3343 23.7521C18.7991 23.5211 19.2468 23.2609 19.6749 22.9737C20.3264 22.5369 20.9327 22.0379 21.4853 21.4853C23.6569 19.3137 25 16.3137 25 13H1C1 16.3137 2.34315 19.3137 4.51473 21.4853C5.0724 22.043 5.68473 22.546 6.343 22.9857C6.76867 23.2701 7.2136 23.528 7.6754 23.757L7.66667 25H18.3333Z" stroke="#F5F5F5" stroke-width="2" stroke-linecap="round" stroke-linejoin="round"/>
</svg>
