<svg width="18" height="26" viewBox="0 0 18 26" fill="none" xmlns="http://www.w3.org/2000/svg">
<path d="M9 1L9.63638 0.228627C9.26689 -0.0762089 8.73312 -0.0762089 8.36362 0.228627L9 1ZM9 26C11.4101 26 13.6901 25.2615 15.3674 23.5676C17.0471 21.8713 18 19.3409 18 16H16C16 18.963 15.162 20.9326 13.9463 22.1603C12.7282 23.3905 11.0082 24 9 24V26ZM18 16C18 11.4913 15.8604 7.53145 13.8036 4.75477C12.7678 3.35645 11.7334 2.23166 10.9571 1.45539C10.5685 1.06674 10.2431 0.764053 10.0127 0.556706C9.89748 0.452997 9.80589 0.373033 9.74188 0.317987C9.70988 0.29046 9.68475 0.269154 9.66701 0.254214C9.65814 0.246744 9.65111 0.240865 9.64598 0.236594C9.64342 0.234459 9.64133 0.232726 9.63973 0.231397C9.63893 0.230733 9.63825 0.23017 9.63769 0.229708C9.63741 0.229477 9.63708 0.229207 9.63695 0.229091C9.63665 0.228846 9.63638 0.228627 9 1C8.36362 1.77137 8.36341 1.7712 8.36324 1.77106C8.36322 1.77105 8.36307 1.77093 8.36304 1.7709C8.36297 1.77084 8.36302 1.77088 8.36318 1.77101C8.36352 1.77129 8.36433 1.77197 8.36561 1.77304C8.36818 1.77518 8.37263 1.77889 8.37889 1.78416C8.39142 1.79471 8.41122 1.81149 8.4378 1.83436C8.49098 1.88009 8.57127 1.95013 8.67479 2.04329C8.8819 2.2297 9.18155 2.50826 9.54289 2.86961C10.2666 3.59334 11.2322 4.64355 12.1964 5.94523C14.1396 8.56855 16 12.1087 16 16H18ZM9 1C8.36362 0.228627 8.36335 0.228846 8.36305 0.229091C8.36292 0.229207 8.36259 0.229477 8.36231 0.229708C8.36175 0.23017 8.36107 0.230733 8.36027 0.231397C8.35867 0.232726 8.35658 0.234459 8.35402 0.236594C8.34889 0.240865 8.34186 0.246744 8.33299 0.254214C8.31525 0.269154 8.29012 0.29046 8.25812 0.317987C8.19411 0.373033 8.10252 0.452997 7.98729 0.556706C7.7569 0.764053 7.43155 1.06674 7.04289 1.45539C6.26663 2.23166 5.23224 3.35645 4.19644 4.75477C2.13965 7.53145 0 11.4913 0 16H2C2 12.1087 3.86035 8.56855 5.80356 5.94523C6.76776 4.64355 7.73337 3.59334 8.45711 2.86961C8.81845 2.50826 9.1181 2.2297 9.32522 2.04329C9.42873 1.95013 9.50902 1.88009 9.5622 1.83436C9.58878 1.81149 9.60858 1.79471 9.62111 1.78416C9.62737 1.77889 9.63182 1.77518 9.63439 1.77304C9.63567 1.77197 9.63648 1.77129 9.63682 1.77101C9.63698 1.77088 9.63703 1.77084 9.63696 1.7709C9.63693 1.77093 9.63678 1.77105 9.63676 1.77106C9.63659 1.7712 9.63638 1.77137 9 1ZM0 16C0 19.3409 0.952875 21.8713 2.63257 23.5676C4.30992 25.2615 6.5899 26 9 26V24C6.9918 24 5.27179 23.3905 4.05371 22.1603C2.83798 20.9326 2 18.963 2 16H0ZM17 16C16.4961 15.1362 16.4965 15.136 16.4969 15.1358C16.497 15.1357 16.4973 15.1355 16.4975 15.1354C16.4979 15.1352 16.4983 15.135 16.4986 15.1348C16.4991 15.1345 16.4995 15.1343 16.4996 15.1342C16.4998 15.1341 16.4991 15.1345 16.4975 15.1354C16.4942 15.1372 16.4873 15.1411 16.4769 15.1468C16.456 15.1581 16.4211 15.1766 16.3731 15.2006C16.2769 15.2487 16.1291 15.3183 15.9373 15.396C15.5521 15.5519 14.9985 15.7365 14.3356 15.8469C13.0169 16.0667 11.2913 15.9924 9.5547 14.8346L8.4453 16.4987C10.7087 18.0076 12.9831 18.1 14.6644 17.8197C15.5015 17.6802 16.1979 17.4481 16.6877 17.2499C16.9334 17.1504 17.1293 17.0586 17.2675 16.9895C17.3367 16.9549 17.3916 16.9259 17.4313 16.9044C17.4511 16.8936 17.4672 16.8847 17.4793 16.8778C17.4854 16.8744 17.4905 16.8715 17.4946 16.8692C17.4966 16.868 17.4984 16.8669 17.5 16.866C17.5007 16.8656 17.5015 16.8652 17.5021 16.8648C17.5024 16.8646 17.5029 16.8644 17.503 16.8643C17.5035 16.864 17.5039 16.8638 17 16ZM9.5547 14.8346C7.24557 13.2952 4.92408 13.3999 3.23236 13.8698C2.39108 14.1035 1.6942 14.4291 1.20719 14.6958C0.962636 14.8297 0.76807 14.9504 0.631437 15.04C0.563042 15.0848 0.508926 15.122 0.470078 15.1494C0.450647 15.1631 0.435013 15.1743 0.423298 15.1828C0.41744 15.1871 0.412559 15.1907 0.408672 15.1936C0.406728 15.195 0.405032 15.1962 0.403586 15.1973C0.402863 15.1979 0.402203 15.1984 0.401605 15.1988C0.401307 15.199 0.400905 15.1993 0.400755 15.1994C0.40037 15.1997 0.4 15.2 1 16C1.6 16.8 1.59966 16.8003 1.59934 16.8005C1.59925 16.8006 1.59894 16.8008 1.59876 16.8009C1.59841 16.8012 1.59811 16.8014 1.59787 16.8016C1.5974 16.8019 1.59716 16.8021 1.59716 16.8021C1.59715 16.8021 1.59806 16.8015 1.5999 16.8001C1.60356 16.7975 1.61088 16.7922 1.62172 16.7845C1.64342 16.7693 1.67915 16.7446 1.72794 16.7126C1.82568 16.6485 1.97486 16.5557 2.16781 16.45C2.5558 16.2375 3.10892 15.9798 3.76764 15.7969C5.07592 15.4334 6.75443 15.3715 8.4453 16.4987L9.5547 14.8346Z" fill="#F5F5F5"/>
</svg>
