<svg width="24" height="24" viewBox="0 0 24 24" fill="none" xmlns="http://www.w3.org/2000/svg">
<path d="M22.0338 15.0982L21.0786 14.8023L22.0338 15.0982ZM19.7004 19.1397L18.9665 18.4605L19.7004 19.1397ZM4.2979 4.85843L5.03181 5.53768H5.03181L4.2979 4.85843ZM1.96456 8.89989L1.00937 8.60392H1.00937L1.96456 8.89989ZM22.0317 8.90095L21.0762 9.19578L22.0317 8.90095ZM19.6924 4.849L18.9601 5.53002L19.6924 4.849ZM1.96287 15.0851L1.00697 15.3788L1.96287 15.0851ZM4.31455 19.1583L3.58311 19.8402L4.31455 19.1583ZM14.3314 1.75849L14.5538 0.783533L14.3314 1.75849ZM9.67932 1.75849L9.9005 2.73373L9.67932 1.75849ZM9.67932 22.2425L9.45814 23.2177L9.67932 22.2425ZM14.3066 22.2425L14.0866 21.267L14.3066 22.2425ZM12 16.5C14.4853 16.5 16.5 14.4853 16.5 12H14.5C14.5 13.3808 13.3807 14.5 12 14.5V16.5ZM16.5 12C16.5 9.51476 14.4853 7.50005 12 7.50005V9.50005C13.3807 9.50005 14.5 10.6193 14.5 12H16.5ZM12 7.50005C9.51472 7.50005 7.5 9.51476 7.5 12H9.5C9.5 10.6193 10.6193 9.50005 12 9.50005V7.50005ZM7.5 12C7.5 14.4853 9.51472 16.5 12 16.5V14.5C10.6193 14.5 9.5 13.3808 9.5 12H7.5ZM18.9601 5.53002C19.9444 6.5884 20.6598 7.84637 21.0762 9.19578L22.9873 8.60611C22.484 6.97503 21.6184 5.45155 20.4246 4.16797L18.9601 5.53002ZM21.0786 14.8023C20.6673 16.1297 19.9104 17.4406 18.9665 18.4605L20.4344 19.8189C21.5812 18.5798 22.4893 17.007 22.989 15.3942L21.0786 14.8023ZM5.04599 18.4764C4.05501 17.4135 3.33573 16.1485 2.91877 14.7914L1.00697 15.3788C1.51096 17.0192 2.38127 18.5511 3.58311 19.8402L5.04599 18.4764ZM14.0866 21.267C12.7243 21.5742 11.2939 21.5833 9.90051 21.2672L9.45814 23.2177C11.148 23.601 12.8799 23.5893 14.5265 23.218L14.0866 21.267ZM9.9005 2.73373C11.2698 2.4232 12.7082 2.41395 14.109 2.73345L14.5538 0.783533C12.8549 0.396047 11.1132 0.407905 9.45815 0.783259L9.9005 2.73373ZM2.91976 9.19585C3.33105 7.86848 4.08791 6.55755 5.03181 5.53768L3.56399 4.17919C2.41716 5.41832 1.50907 6.99118 1.00937 8.60392L2.91976 9.19585ZM21.0762 9.19578C21.0725 9.18369 21.0322 9.04024 21.1048 8.84816C21.1751 8.66228 21.2962 8.57834 21.3064 8.57136C21.3127 8.56706 21.3068 8.57171 21.2779 8.58663C21.2487 8.60168 21.2121 8.61912 21.156 8.64519C21.0547 8.69228 20.8913 8.76631 20.7235 8.86112C20.3658 9.06323 19.9472 9.38004 19.6334 9.93087C19.326 10.4704 19.1676 11.1492 19.1676 11.9999H21.1676C21.1676 11.3922 21.2808 11.0795 21.3712 10.9209C21.4551 10.7735 21.5604 10.6854 21.7073 10.6024C21.7918 10.5547 21.8759 10.5161 21.9991 10.4588C22.0984 10.4126 22.2753 10.3317 22.4349 10.2226C22.6054 10.1061 22.8457 9.89915 22.9757 9.55515C23.108 9.20496 23.0682 8.86826 22.9873 8.60611L21.0762 9.19578ZM19.1676 11.9999C19.1676 12.851 19.3267 13.53 19.6363 14.0692C19.9523 14.6196 20.3734 14.9341 20.7311 15.134C20.8985 15.2276 21.0624 15.3011 21.1623 15.3473C21.2865 15.4047 21.3094 15.4194 21.308 15.4184C21.2946 15.4091 21.1738 15.3234 21.1054 15.1372C21.0358 14.9476 21.0766 14.8088 21.0786 14.8023L22.989 15.3942C23.0698 15.1333 23.1114 14.7978 22.9829 14.4478C22.8555 14.101 22.6161 13.8909 22.4425 13.7713C22.2809 13.66 22.1022 13.5784 22.0015 13.5319C21.8765 13.4741 21.7924 13.436 21.7068 13.3882C21.5585 13.3053 21.454 13.2183 21.3708 13.0734C21.2811 12.9173 21.1676 12.6071 21.1676 11.9999H19.1676ZM18.9665 18.4605C18.9711 18.4555 19.0708 18.351 19.2694 18.3165C19.4645 18.2826 19.599 18.3441 19.6137 18.3511C19.6153 18.3518 19.5911 18.3393 19.4792 18.2605C19.3893 18.1972 19.2435 18.0921 19.0788 17.994C18.7268 17.7844 18.2438 17.5771 17.6091 17.5787C16.9874 17.5803 16.3197 17.782 15.5826 18.2075L16.5826 19.9396C17.1085 19.636 17.434 19.5791 17.6142 19.5787C17.7816 19.5783 17.9094 19.6254 18.0555 19.7124C18.1399 19.7626 18.2151 19.8164 18.3278 19.8958C18.4185 19.9597 18.5786 20.0736 18.7559 20.1578C18.9465 20.2482 19.2482 20.3502 19.6119 20.2869C19.9791 20.2231 20.2487 20.0195 20.4344 19.8189L18.9665 18.4605ZM15.5826 18.2075C14.8458 18.6329 14.3373 19.1093 14.0225 19.6439C13.7014 20.1893 13.6331 20.7087 13.6334 21.1185C13.6335 21.3105 13.6492 21.4891 13.6578 21.5996C13.6626 21.6609 13.6653 21.7012 13.6664 21.7336C13.6676 21.7658 13.6664 21.7729 13.6671 21.7651C13.6683 21.7513 13.6827 21.6073 13.8078 21.4578C13.9363 21.3042 14.0764 21.2693 14.0866 21.267L14.5265 23.218C14.794 23.1576 15.1037 23.0257 15.3418 22.7411C15.5764 22.4606 15.6404 22.1517 15.6591 21.9439C15.6765 21.75 15.6604 21.5554 15.6518 21.445C15.6412 21.3083 15.6334 21.2156 15.6334 21.1172C15.6332 20.9461 15.6581 20.8079 15.746 20.6587C15.8402 20.4987 16.0565 20.2433 16.5826 19.9396L15.5826 18.2075ZM9.90051 21.2672C9.91119 21.2697 10.0528 21.3053 10.1817 21.4609C10.307 21.612 10.3204 21.7571 10.3215 21.7702C10.3221 21.7779 10.321 21.7706 10.3223 21.7382C10.3237 21.7056 10.3266 21.6652 10.3318 21.6037C10.341 21.4929 10.3577 21.314 10.3588 21.1216C10.3612 20.7113 10.2952 20.1905 9.97503 19.6434C9.66116 19.1072 9.15253 18.6301 8.41542 18.2045L7.41542 19.9366C7.94128 20.2402 8.15603 20.495 8.24898 20.6538C8.33559 20.8017 8.35986 20.939 8.35888 21.1102C8.35831 21.2085 8.35001 21.3013 8.33864 21.438C8.32946 21.5483 8.31224 21.7429 8.32845 21.9368C8.34579 22.1443 8.40777 22.4547 8.64188 22.7371C8.87967 23.024 9.1903 23.1569 9.45814 23.2177L9.90051 21.2672ZM8.41542 18.2045C7.67856 17.7791 7.01065 17.5771 6.38859 17.5761C5.75315 17.5751 5.26967 17.7841 4.91699 17.9972C4.75135 18.0972 4.60654 18.2036 4.5152 18.2694C4.46468 18.3058 4.43134 18.3294 4.40359 18.3478C4.37607 18.366 4.36891 18.3691 4.3755 18.3658C4.38524 18.3609 4.51989 18.2943 4.72018 18.3248C4.92828 18.3565 5.03614 18.4659 5.04599 18.4764L3.58311 19.8402C3.77045 20.0412 4.04502 20.245 4.41883 20.302C4.78484 20.3578 5.08422 20.2472 5.26748 20.1558C5.43956 20.0701 5.59646 19.9554 5.68454 19.892C5.79411 19.813 5.86879 19.7588 5.95102 19.7091C6.09407 19.6227 6.21983 19.5759 6.38542 19.5761C6.5644 19.5764 6.88934 19.6328 7.41542 19.9366L8.41542 18.2045ZM2.91877 14.7914C2.92281 14.8046 2.96329 14.9504 2.88873 15.1445C2.8168 15.3318 2.69375 15.4155 2.6841 15.422C2.67788 15.4261 2.68392 15.4215 2.71313 15.4066C2.7426 15.3917 2.77944 15.3744 2.83585 15.3486C2.93778 15.3019 3.10159 15.2287 3.27012 15.1344C3.62916 14.9336 4.04924 14.6178 4.36405 14.067C4.67227 13.5277 4.83075 12.8488 4.83075 11.9982L2.83075 11.9982C2.83075 12.6059 2.71748 12.9174 2.62763 13.0746C2.54436 13.2203 2.44006 13.3071 2.29386 13.3889C2.20976 13.4359 2.12574 13.474 2.00279 13.5303C1.90388 13.5757 1.72672 13.6555 1.567 13.763C1.39659 13.8778 1.15393 14.0832 1.02171 14.4274C0.886869 14.7785 0.926383 15.1165 1.00697 15.3788L2.91877 14.7914ZM4.83075 11.9982C4.83075 11.1471 4.6716 10.468 4.36205 9.92884C4.04604 9.37841 3.62489 9.06393 3.26721 8.86405C3.09979 8.7705 2.9359 8.69694 2.83603 8.65077C2.71179 8.59334 2.68887 8.5787 2.69031 8.5797C2.70373 8.58894 2.82451 8.67467 2.89291 8.86093C2.96252 9.05049 2.92177 9.18937 2.91976 9.19585L1.00937 8.60392C0.92851 8.86488 0.886945 9.2003 1.01549 9.55035C1.14283 9.8971 1.38229 10.1073 1.55588 10.2268C1.7175 10.3381 1.89623 10.4197 1.99684 10.4662C2.12183 10.524 2.20599 10.5621 2.29157 10.6099C2.43985 10.6928 2.54439 10.7797 2.62757 10.9246C2.71721 11.0808 2.83075 11.3909 2.83075 11.9982L4.83075 11.9982ZM5.03181 5.53768C5.02726 5.54259 4.92758 5.64711 4.72899 5.68164C4.53383 5.71557 4.39938 5.65408 4.38465 5.64708C4.38307 5.64633 4.40725 5.65886 4.51913 5.73764C4.60907 5.80097 4.7548 5.90604 4.91956 6.00414C5.27158 6.21376 5.75454 6.42105 6.3892 6.41944C7.01093 6.41785 7.6786 6.21618 8.4157 5.79061L7.4157 4.05856C6.88985 4.36216 6.56435 4.41898 6.3841 4.41944C6.21679 4.41987 6.08896 4.37276 5.9428 4.28572C5.85846 4.2355 5.78326 4.18169 5.67058 4.10235C5.57985 4.03847 5.41975 3.92455 5.24239 3.84035C5.05187 3.7499 4.75014 3.64795 4.38639 3.7112C4.0192 3.77504 3.7496 3.97864 3.56399 4.17919L5.03181 5.53768ZM8.4157 5.79061C9.15244 5.36526 9.66104 4.88877 9.9752 4.35352C10.2958 3.80723 10.3625 3.28707 10.3604 2.87676C10.3594 2.68438 10.3427 2.50581 10.3335 2.39494C10.3284 2.33349 10.3254 2.29314 10.3241 2.26054C10.3227 2.2282 10.3239 2.22093 10.3232 2.22866C10.3221 2.24173 10.3089 2.38726 10.1833 2.53897C10.054 2.69527 9.91174 2.73118 9.9005 2.73373L9.45815 0.783259C9.19071 0.843912 8.88011 0.976762 8.64248 1.26393C8.40866 1.5465 8.34716 1.85682 8.33003 2.06367C8.31403 2.25698 8.33128 2.45113 8.34041 2.56082C8.35173 2.6968 8.35995 2.78917 8.36044 2.88688C8.3613 3.05675 8.33708 3.19338 8.25035 3.34115C8.15715 3.49994 7.94192 3.75475 7.4157 4.05856L8.4157 5.79061ZM14.109 2.73345C14.0973 2.73077 13.9535 2.69418 13.8237 2.53586C13.698 2.3825 13.6858 2.23593 13.6849 2.2235C13.6843 2.21591 13.6854 2.22336 13.6838 2.2559C13.6823 2.28871 13.679 2.32922 13.6736 2.39085C13.6637 2.50208 13.646 2.68085 13.644 2.87359C13.6399 3.28446 13.7042 3.80604 14.0239 4.35396C14.3371 4.89082 14.8458 5.36805 15.5828 5.79358L16.5828 4.06153C16.0569 3.75789 15.8433 3.50361 15.7513 3.34604C15.6658 3.19955 15.6422 3.06381 15.6439 2.8939C15.6449 2.79626 15.6536 2.70378 15.6657 2.56783C15.6754 2.45821 15.6938 2.26404 15.679 2.07076C15.6632 1.86422 15.6037 1.55252 15.3705 1.26798C15.1332 0.978464 14.8216 0.844614 14.5538 0.783533L14.109 2.73345ZM15.5828 5.79358C16.3198 6.21905 16.9876 6.42102 17.6094 6.42286C18.2443 6.42475 18.7279 6.21754 19.0811 6.00633C19.2469 5.90719 19.3922 5.80157 19.4836 5.73651C19.5341 5.70049 19.5675 5.67714 19.5952 5.65906C19.6227 5.64113 19.6298 5.63822 19.623 5.64151C19.6126 5.64664 19.4786 5.71148 19.2804 5.68016C19.0751 5.64771 18.9692 5.53978 18.9601 5.53002L20.4246 4.16797C20.2376 3.96684 19.9643 3.76341 19.5925 3.70467C19.2279 3.64704 18.9283 3.75478 18.7434 3.84532C18.5701 3.93019 18.4123 4.04409 18.3233 4.10746C18.2128 4.18618 18.1376 4.2402 18.0546 4.28986C17.9101 4.37627 17.7827 4.42337 17.6153 4.42287C17.4348 4.42234 17.1089 4.36523 16.5828 4.06153L15.5828 5.79358Z" fill="#747474"/>
</svg>
