<svg width="18" height="18" viewBox="0 0 18 18" fill="none" xmlns="http://www.w3.org/2000/svg">
<path d="M17.7069 17C18.0974 16.6095 18.0974 15.9764 17.7069 15.5858L11.1212 9.00009L17.7071 2.41418C18.0976 2.02366 18.0976 1.39049 17.7071 0.999967L17.0002 0.29306C16.6096 -0.0974643 15.9765 -0.0974643 15.586 0.29306L9.00004 6.87897L2.41414 0.293015C2.02361 -0.097509 1.39045 -0.097509 0.999923 0.293015L0.293015 0.999923C-0.0975088 1.39045 -0.0975091 2.02361 0.293015 2.41414L6.87892 9.00009L0.293379 15.5857C-0.0971448 15.9762 -0.0971445 16.6094 0.29338 16.9999L1.00029 17.7068C1.39081 18.0973 2.02398 18.0973 2.4145 17.7068L9.00004 11.1212L15.5858 17.7069C15.9763 18.0975 16.6095 18.0975 17 17.7069L17.7069 17Z" fill="#959595"/>
</svg>
