<svg width="24" height="24" viewBox="0 0 24 24" fill="none" xmlns="http://www.w3.org/2000/svg">
<path d="M15.5 22.5V3.83333C15.5 2.54467 14.4553 1.5 13.1667 1.5H10.8333C9.54467 1.5 8.5 2.54467 8.5 3.83333V22.5M15.5 22.5H8.5M15.5 22.5H20.1667C21.4553 22.5 22.5 21.4553 22.5 20.1667V15.5C22.5 14.2113 21.4553 13.1667 20.1667 13.1667H17.8333C16.5447 13.1667 15.5 14.2113 15.5 15.5V22.5ZM8.5 22.5V10.8333C8.5 9.54467 7.45533 8.5 6.16667 8.5H3.83333C2.54467 8.5 1.5 9.54467 1.5 10.8333V20.1667C1.5 21.4553 2.54467 22.5 3.83333 22.5H8.5Z" stroke="#747474" stroke-width="2" stroke-linejoin="round"/>
</svg>
