<svg width="22" height="26" viewBox="0 0 22 26" fill="none" xmlns="http://www.w3.org/2000/svg">
<path d="M7.66666 1L8.09184 0.0948907C7.75539 -0.0631579 7.35903 -0.021541 7.06275 0.202944C6.76647 0.42743 6.61915 0.797734 6.68026 1.1644L7.66666 1ZM13.6667 13L12.6965 12.7575C12.6018 13.1363 12.7363 13.5357 13.0409 13.78C13.3456 14.0244 13.7646 14.0691 14.1139 13.8944L13.6667 13ZM17.6667 6.33333L18.5096 5.79538C18.2706 5.42079 17.813 5.24888 17.3865 5.37339C16.9599 5.4979 16.6667 5.88897 16.6667 6.33333H17.6667ZM13 5.66667L13.8785 5.18888L13 5.66667ZM19.3333 15.6667C19.3333 20.269 15.6024 24 11 24V26C16.7069 26 21.3333 21.3736 21.3333 15.6667H19.3333ZM11 24C6.39762 24 2.66666 20.269 2.66666 15.6667H0.666656C0.666656 21.3736 5.29305 26 11 26V24ZM2.66666 15.6667C2.66666 14.9129 2.67001 14.0546 3.03004 12.9964C3.38973 11.9391 4.13059 10.6169 5.7071 9.04044L4.29288 7.62623C2.53605 9.38306 1.61025 10.96 1.13661 12.3522C0.6633 13.7435 0.666656 14.8852 0.666656 15.6667H2.66666ZM5.7071 9.04044C7.54825 7.19928 8.29043 5.16393 8.56811 3.59045C8.70656 2.80589 8.73019 2.13419 8.71844 1.6527C8.71256 1.41154 8.69777 1.21675 8.68372 1.07777C8.67669 1.00824 8.66982 0.952532 8.66432 0.911818C8.66157 0.891456 8.65916 0.874829 8.65723 0.862082C8.65627 0.855708 8.65542 0.850302 8.65472 0.845883C8.65437 0.843674 8.65405 0.84171 8.65377 0.839996C8.65363 0.839139 8.6535 0.838344 8.65338 0.837611C8.65332 0.837245 8.65324 0.836742 8.65321 0.836559C8.65313 0.836072 8.65305 0.835601 7.66666 1C6.68026 1.1644 6.68019 1.16396 6.68012 1.16353C6.6801 1.16341 6.68003 1.163 6.67999 1.16275C6.67991 1.16227 6.67984 1.16184 6.67978 1.16146C6.67966 1.16072 6.67958 1.16021 6.67953 1.15994C6.67945 1.15939 6.67951 1.15977 6.6797 1.16107C6.6801 1.16366 6.68102 1.1699 6.68234 1.17965C6.68497 1.19916 6.68918 1.23265 6.69387 1.279C6.70325 1.37179 6.7145 1.51555 6.71904 1.70147C6.72813 2.07414 6.71009 2.61077 6.59854 3.24288C6.37621 4.50274 5.78506 6.13405 4.29288 7.62623L5.7071 9.04044ZM14.1139 13.8944C16.4161 12.7433 17.5538 10.8245 18.1096 9.24949C18.3876 8.46193 18.526 7.74632 18.5954 7.22591C18.6302 6.9648 18.648 6.75023 18.6571 6.59706C18.6616 6.5204 18.664 6.4589 18.6653 6.41439C18.6659 6.39213 18.6663 6.37409 18.6664 6.36051C18.6665 6.35372 18.6666 6.34804 18.6666 6.3435C18.6666 6.34123 18.6666 6.33925 18.6666 6.33755C18.6667 6.33671 18.6667 6.33593 18.6667 6.33523C18.6667 6.33487 18.6667 6.3344 18.6667 6.33423C18.6667 6.33377 18.6667 6.33333 17.6667 6.33333C16.6667 6.33333 16.6667 6.33293 16.6667 6.33255C16.6667 6.33244 16.6667 6.33208 16.6667 6.33187C16.6667 6.33145 16.6667 6.3311 16.6667 6.33082C16.6667 6.33025 16.6667 6.32996 16.6667 6.32994C16.6667 6.32991 16.6667 6.33095 16.6666 6.33305C16.6666 6.33726 16.6664 6.34567 16.6661 6.35807C16.6654 6.3829 16.6639 6.42361 16.6606 6.47846C16.6541 6.58831 16.6406 6.75395 16.6129 6.96159C16.5573 7.37868 16.4457 7.95473 16.2237 8.58385C15.7795 9.84222 14.9172 11.2567 13.2194 12.1056L14.1139 13.8944ZM17.6667 6.33333C16.8237 6.87129 16.8235 6.87107 16.8234 6.87087C16.8234 6.87083 16.8233 6.87065 16.8232 6.87055C16.8231 6.87037 16.823 6.87026 16.823 6.8702C16.8229 6.87009 16.823 6.87023 16.8233 6.87061C16.8237 6.87139 16.8249 6.87316 16.8266 6.87591C16.83 6.88142 16.8359 6.89085 16.844 6.90412C16.8603 6.93065 16.8856 6.97249 16.9186 7.02885C16.9848 7.14162 17.0818 7.31228 17.1995 7.53463C17.4351 7.97979 17.7522 8.62942 18.0698 9.43415C18.7078 11.0505 19.3333 13.2551 19.3333 15.6667H21.3333C21.3333 12.9236 20.6255 10.4615 19.9302 8.69986C19.5811 7.81558 19.2315 7.09838 18.9671 6.59896C18.8348 6.34902 18.7235 6.15295 18.6438 6.01706C18.604 5.94909 18.572 5.89612 18.5492 5.85892C18.5378 5.84033 18.5287 5.82567 18.522 5.81504C18.5187 5.80973 18.516 5.80543 18.5139 5.80215C18.5129 5.80051 18.512 5.79912 18.5113 5.79799C18.5109 5.79743 18.5106 5.79693 18.5103 5.79649C18.5102 5.79628 18.51 5.796 18.51 5.79589C18.5098 5.79563 18.5096 5.79538 17.6667 6.33333ZM7.66666 1C7.24148 1.90511 7.24128 1.90502 7.2411 1.90493C7.24106 1.90491 7.2409 1.90484 7.24081 1.9048C7.24065 1.90472 7.24054 1.90467 7.24049 1.90464C7.24038 1.90459 7.2405 1.90465 7.24084 1.90481C7.24151 1.90513 7.24307 1.90587 7.24549 1.90703C7.25033 1.90935 7.25861 1.91334 7.27015 1.91897C7.29323 1.93025 7.32931 1.94812 7.37697 1.97241C7.47234 2.02102 7.61372 2.09519 7.78975 2.19366C8.1426 2.39105 8.63029 2.68364 9.16364 3.06102C10.2493 3.82922 11.4389 4.88942 12.1215 6.14445L13.8785 5.18888C12.9822 3.54092 11.5051 2.26779 10.3189 1.4284C9.71622 1.00199 9.16662 0.672224 8.76617 0.448209C8.56555 0.335976 8.40127 0.24968 8.28516 0.1905C8.22707 0.160895 8.18095 0.138031 8.14826 0.122056C8.13192 0.114068 8.11892 0.107798 8.10946 0.103265C8.10472 0.100999 8.10087 0.0991661 8.09793 0.0977697C8.09646 0.0970715 8.09521 0.0964823 8.0942 0.0960023C8.09369 0.0957624 8.09324 0.0955498 8.09284 0.0953645C8.09265 0.0952719 8.09239 0.0951533 8.0923 0.0951071C8.09206 0.0949955 8.09184 0.0948907 7.66666 1ZM12.1215 6.14445C13.3102 8.33003 13.324 10.2475 12.6965 12.7575L14.6368 13.2425C15.3427 10.4191 15.3799 7.9495 13.8785 5.18888L12.1215 6.14445Z" fill="#F5F5F5"/>
</svg>
